<svg xmlns="http://www.w3.org/2000/svg" viewBox="0 0 27 15"><defs><style>.a{fill:#f58120;}.b{fill:#231f20;}.c{fill:#883a1d;}.d{fill:#fff;}</style></defs><title>proBadge_updated</title><rect class="a" width="27" height="15" rx="1.85" ry="1.85"/><path class="b" d="M25.3,1a0.66,0.66,0,0,1,.29.34A1.27,1.27,0,0,1,26,2V13a1.31,1.31,0,0,1-.38.63A1.33,1.33,0,0,1,25,14H2a1.34,1.34,0,0,1-.61-0.36A1.3,1.3,0,0,1,1,13V2a1.36,1.36,0,0,1,.35-0.6A1.28,1.28,0,0,1,2,1H25m0.15-1H1.85A1.85,1.85,0,0,0,0,1.85v11.3A1.85,1.85,0,0,0,1.85,15h23.3A1.85,1.85,0,0,0,27,13.15V1.85A1.85,1.85,0,0,0,25.15,0h0Z"/><path class="c" d="M3,11.89L4.53,5.15H7.8a1.91,1.91,0,0,1,2,1.93A2.58,2.58,0,0,1,6.9,9.63H5.28l-0.5,2.26H3ZM7,8.11a0.83,0.83,0,0,0,.88-0.87A1,1,0,0,0,7,6.39H5.66l0,1.72H7Z"/><path class="c" d="M13.37,11.89L12.75,9.63h-1l-0.5,2.26H9.54L11,5.15H14.1a2,2,0,0,1,2.18,2,2.45,2.45,0,0,1-1.8,2.39l0.81,2.39H13.37Zm0.12-3.53a1,1,0,0,0,1-1.06,0.94,0.94,0,0,0-.72-0.91H12.43l-0.32,2h1.39Z"/><path class="c" d="M16.52,9a3.89,3.89,0,0,1,4-3.91,3.13,3.13,0,0,1,3.42,3,3.9,3.9,0,0,1-4,3.93A3.13,3.13,0,0,1,16.52,9Zm5.59-.74a1.6,1.6,0,0,0-1.71-1.64,2.16,2.16,0,0,0-2.07,2.26A1.6,1.6,0,0,0,20,10.48,2.15,2.15,0,0,0,22.12,8.21Z"/><path class="d" d="M3.07,10.86L4.56,4.12H7.83A1.91,1.91,0,0,1,9.81,6,2.58,2.58,0,0,1,6.93,8.59H5.31l-0.5,2.26H3.07ZM7.53,7.08a0.83,0.83,0,0,0,.88-0.87,1,1,0,0,0-.86-0.85H5.69l0,1.72H7.53Z"/><path class="d" d="M13.4,10.86L12.78,8.59h-1l-0.5,2.26H9.57l1.49-6.74h3.07a2,2,0,0,1,2.18,2,2.45,2.45,0,0,1-1.8,2.39l0.81,2.39H13.4Zm0.12-3.53a1,1,0,0,0,1-1.06,0.94,0.94,0,0,0-.72-0.91H12.46l-0.32,2h1.39Z"/><path class="d" d="M16.56,7.92a3.89,3.89,0,0,1,4-3.91A3.13,3.13,0,0,1,24,7,3.9,3.9,0,0,1,20,11,3.13,3.13,0,0,1,16.56,7.92Zm5.59-.74a1.6,1.6,0,0,0-1.71-1.64,2.16,2.16,0,0,0-2.07,2.26,1.6,1.6,0,0,0,1.71,1.64A2.15,2.15,0,0,0,22.15,7.18Z"/></svg>