<svg xmlns="http://www.w3.org/2000/svg" viewBox="0 0 20 15"><defs><style>.a{fill:#f58120;}.b{fill:#231f20;}.c{fill:#883a1d;}.d{fill:#fff;}</style></defs><title>proBadge</title><rect class="a" x="0.51" y="0.51" width="18.99" height="13.99" rx="1.09" ry="1.09"/><path class="b" d="M18.41,1a0.58,0.58,0,0,1,.58.58V13.41a0.58,0.58,0,0,1-.58.58H1.59A0.58,0.58,0,0,1,1,13.41V1.59A0.58,0.58,0,0,1,1.59,1H18.41m0-1H1.59A1.59,1.59,0,0,0,0,1.59V13.41A1.59,1.59,0,0,0,1.59,15H18.41A1.59,1.59,0,0,0,20,13.41V1.59A1.59,1.59,0,0,0,18.41,0h0Z"/><path class="c" d="M2,10.92L3.15,5.81H5.62a1.44,1.44,0,0,1,1.5,1.46A2,2,0,0,1,4.94,9.21H3.71L3.34,10.92H2ZM5,8.06A0.63,0.63,0,0,0,5.68,7.4,0.74,0.74,0,0,0,5,6.75H4l0,1.3H5Z"/><path class="c" d="M9.85,10.92L9.37,9.21H8.64L8.26,10.92H6.94L8.07,5.81H10.4a1.54,1.54,0,0,1,1.65,1.49,1.85,1.85,0,0,1-1.36,1.81l0.61,1.81H9.85ZM9.94,8.25a0.79,0.79,0,0,0,.74-0.8,0.71,0.71,0,0,0-.54-0.69h-1L8.89,8.25h1Z"/><path class="c" d="M12.24,8.69a3,3,0,0,1,3-3A2.37,2.37,0,0,1,17.84,8a3,3,0,0,1-3,3A2.37,2.37,0,0,1,12.24,8.69Zm4.24-.56a1.21,1.21,0,0,0-1.29-1.24,1.63,1.63,0,0,0-1.57,1.72A1.21,1.21,0,0,0,14.9,9.85,1.63,1.63,0,0,0,16.47,8.13Z"/><path class="d" d="M2,10.14L3.17,5H5.65a1.44,1.44,0,0,1,1.5,1.46A2,2,0,0,1,5,8.42H3.74L3.36,10.14H2ZM5,7.27A0.63,0.63,0,0,0,5.7,6.61,0.74,0.74,0,0,0,5,6H4l0,1.3H5Z"/><path class="d" d="M9.87,10.14L9.4,8.42H8.66L8.29,10.14H7L8.09,5h2.33a1.54,1.54,0,0,1,1.65,1.49,1.85,1.85,0,0,1-1.36,1.81l0.61,1.81H9.87ZM10,7.46a0.79,0.79,0,0,0,.74-0.8A0.71,0.71,0,0,0,10.16,6h-1L8.91,7.46h1Z"/><path class="d" d="M12.26,7.91a3,3,0,0,1,3-3,2.37,2.37,0,0,1,2.59,2.31,3,3,0,0,1-3,3A2.37,2.37,0,0,1,12.26,7.91Zm4.24-.56A1.21,1.21,0,0,0,15.2,6.11a1.63,1.63,0,0,0-1.57,1.72,1.21,1.21,0,0,0,1.29,1.24A1.63,1.63,0,0,0,16.5,7.35Z"/></svg>