<?xml version="1.0" encoding="utf-8"?>
<!-- Generator: Adobe Illustrator 16.0.0, SVG Export Plug-In . SVG Version: 6.00 Build 0)  -->
<!DOCTYPE svg PUBLIC "-//W3C//DTD SVG 1.1//EN" "http://www.w3.org/Graphics/SVG/1.1/DTD/svg11.dtd">
<svg version="1.1" id="Layer_1" xmlns="http://www.w3.org/2000/svg" xmlns:xlink="http://www.w3.org/1999/xlink" x="0px" y="0px"
	 width="24px" height="24px" viewBox="0 0 24 24" enable-background="new 0 0 24 24" xml:space="preserve">
<g id="gallery" opacity="0.75">
	<path fill="#FFFFFF" d="M20,8.111H10c-2-0.007-3,0.993-3,2.993v7.007c-0.014,2,1,2.988,3,3h10c2-0.012,2.994-0.994,3-3v-7
		C22.994,9.111,22,8.104,20,8.111z M21,19.111H9v-9h12V19.111z"/>
	<path fill="#FFFFFF" d="M10,16.167l2.917-2.724l1.94,1.8l-1.094,0.851l0.729,0.803l3.424-2.674L20,15.777v2.334H10V16.167z"/>
	<path fill="#FFFFFF" d="M10,15l2.93-3.232l2.538,2.466l2.449-1.567L20,14.223v-3.112H10V15z"/>
	<path fill="#FFFFFF" d="M7,5.111h10.146c1.01,0.009,1.987,0.261,2.574,1.165c0.16,0.246,0.187,0.557,0.279,0.835H6v11
		c-1.559-0.373-1.898-1.381-1.986-2.851L4,8.104C4,6.104,5,5.104,7,5.111z"/>
	<path fill="#FFFFFF" d="M4,2h10.146c1.01,0.009,1.987,0.261,2.574,1.165C16.881,3.411,16.907,3.722,17,4H3v11
		c-1.559-0.373-1.898-1.381-1.986-2.85L1,4.993C1,2.993,2,1.993,4,2z"/>
</g>
</svg>
