<?xml version="1.0" encoding="utf-8"?>
<!-- Generator: Adobe Illustrator 16.0.0, SVG Export Plug-In . SVG Version: 6.00 Build 0)  -->
<!DOCTYPE svg PUBLIC "-//W3C//DTD SVG 1.1//EN" "http://www.w3.org/Graphics/SVG/1.1/DTD/svg11.dtd">
<svg version="1.1" id="Layer_1" xmlns="http://www.w3.org/2000/svg" xmlns:xlink="http://www.w3.org/1999/xlink" x="0px" y="0px"
	 width="24px" height="24px" viewBox="0 0 24 24" enable-background="new 0 0 24 24" xml:space="preserve">
<g id="hiero" opacity="0.75">
	<path id="ankh" fill="#FFFFFF" d="M9.004,8.404c0.408,1.329,1.403,2.806,2.206,3.758l-4.241-0.193c0.127,0.415,0.115,0.829,0,1.244
		l4.241-0.185L10.924,19c0.569-0.151,1.036-0.094,1.484,0l-0.262-5.972l3.822,0.185c-0.104-0.415-0.139-0.829,0-1.244l-3.822,0.193
		c0.71-1.032,1.707-2.379,2.065-3.888c0.724-3.05-1.19-3.272-2.609-3.274C10.184,4.999,8.131,5.56,9.004,8.404z M11.584,6
		c1.521-0.01,3.081,1.98,0.117,5.577C8.582,8.021,10.064,6.01,11.584,6z"/>
</g>
</svg>
