<?xml version="1.0" encoding="utf-8"?>
<!-- Generator: Adobe Illustrator 16.0.0, SVG Export Plug-In . SVG Version: 6.00 Build 0)  -->
<!DOCTYPE svg PUBLIC "-//W3C//DTD SVG 1.1//EN" "http://www.w3.org/Graphics/SVG/1.1/DTD/svg11.dtd">
<svg version="1.1" id="Layer_1" xmlns="http://www.w3.org/2000/svg" xmlns:xlink="http://www.w3.org/1999/xlink" x="0px" y="0px"
	 width="24px" height="24px" viewBox="0 0 24 24" enable-background="new 0 0 24 24" xml:space="preserve">
<g id="parameter-set" opacity="0.75">
	<path id="offset_front" fill="#FFFFFF" d="M16.504,11.019h-3.986c-0.999,0-1.497,0.498-1.497,1.495v2.99
		c0,0.998,0.498,1.496,1.497,1.496h3.986C17.502,17,18,16.502,18,15.504v-2.99C18,11.517,17.502,11.019,16.504,11.019z
		 M17.002,15.504c0,0.234-0.259,0.498-0.498,0.498h-2.99V12h2.99c0.239,0,0.498,0.279,0.498,0.514V15.504z"/>
	<path id="box_middle" fill="#FFFFFF" d="M9.516,11.513c0-0.996,0.504-1.513,1.502-1.513h3.912c-0.152-0.655-0.615-1-1.426-1H9.517
		c-0.998,0-1.496,0.498-1.496,1.494v2.99c0,0.998,0.498,1.496,1.496,1.496L9.516,11.513z"/>
	<path id="box_back" fill="#FFFFFF" d="M6.516,9.513C6.516,8.517,7.02,8,8.018,8h3.912c-0.153-0.655-0.616-1-1.426-1H6.517
		C5.519,7,5.021,7.498,5.021,8.494v2.991c0,0.998,0.498,1.496,1.496,1.496L6.516,9.513z"/>
</g>
</svg>
