<?xml version="1.0" encoding="utf-8"?>
<!-- Generator: Adobe Illustrator 16.0.0, SVG Export Plug-In . SVG Version: 6.00 Build 0)  -->
<!DOCTYPE svg PUBLIC "-//W3C//DTD SVG 1.1//EN" "http://www.w3.org/Graphics/SVG/1.1/DTD/svg11.dtd">
<svg version="1.1" id="Layer_1" xmlns="http://www.w3.org/2000/svg" xmlns:xlink="http://www.w3.org/1999/xlink" x="0px" y="0px"
	 width="24px" height="24px" viewBox="0 0 24 24" enable-background="new 0 0 24 24" xml:space="preserve">
<g id="news" opacity="0.75">
	<path fill="#FFFFFF" fill-opacity="0" stroke="#FFFFFF" stroke-width="1.018" d="M5.5,14V8.5h2v-2h10v9c0,0.552-0.448,1-1,1H8
		C6.5,16.5,5.5,15.5,5.5,14z"/>
	<path fill="#FFFFFF" fill-opacity="0" stroke="#FFFFFF" d="M9,8.5h7"/>
	<path fill="#FFFFFF" fill-opacity="0" stroke="#FFFFFF" stroke-width="1.018" stroke-linecap="round" d="M7.5,8.5V14"/>
	<path fill="#FFFFFF" fill-opacity="0" stroke="#FFFFFF" stroke-width="1.018" d="M9,10.5h3"/>
	<path fill="#FFFFFF" fill-opacity="0" stroke="#FFFFFF" stroke-width="1.018" d="M9,12.5h3"/>
	<path fill="#FFFFFF" fill-opacity="0" stroke="#FFFFFF" stroke-width="1.018" d="M13.5,10.5h2v2h-2V10.5z"/>
	<path fill="#FFFFFF" d="M17,5V4h3v15h-3v-1h2V5H17z"/>
	<path fill="#FFFFFF" d="M6,18v1H3V4h3v1H4v13H6z"/>
	<path fill="#FFFFFF" fill-opacity="0" stroke="#FFFFFF" d="M9,14.5h7"/>
</g>
</svg>
