<?xml version="1.0" encoding="utf-8"?>
<!-- Generator: Adobe Illustrator 16.0.0, SVG Export Plug-In . SVG Version: 6.00 Build 0)  -->
<!DOCTYPE svg PUBLIC "-//W3C//DTD SVG 1.1//EN" "http://www.w3.org/Graphics/SVG/1.1/DTD/svg11.dtd">
<svg version="1.1" id="Layer_1" xmlns="http://www.w3.org/2000/svg" xmlns:xlink="http://www.w3.org/1999/xlink" x="0px" y="0px"
	 width="24px" height="24px" viewBox="0 0 24 24" enable-background="new 0 0 24 24" xml:space="preserve">
<g id="web" opacity="0.75">
	<path fill="#FFFFFF" fill-opacity="0" stroke="#FFFFFF" stroke-width="1.018" d="M11.496,17.5c-3.311,0-5.997-2.686-5.997-6
		c0-3.315,2.686-6,5.997-6c3.312,0,5.997,2.685,5.997,6C17.493,14.814,14.809,17.5,11.496,17.5z"/>
	<path fill="#FFFFFF" fill-opacity="0" stroke="#FFFFFF" stroke-width="1.018" d="M11.5,17.5c-1.784,0-3.231-2.686-3.231-6
		c0-3.315,1.447-6,3.231-6s3.23,2.685,3.23,6C14.73,14.814,13.284,17.5,11.5,17.5z"/>
	<path fill="#FFFFFF" fill-opacity="0" stroke="#FFFFFF" stroke-width="1.018" d="M11.496,5.5v12"/>
	<path fill="#FFFFFF" fill-opacity="0" stroke="#FFFFFF" stroke-width="1.018" d="M5.499,11.5h11.994"/>
	<path fill="#FFFFFF" fill-opacity="0" stroke="#FFFFFF" stroke-width="1.018" d="M6.5,14.5h10"/>
	<path fill="#FFFFFF" fill-opacity="0" stroke="#FFFFFF" stroke-width="1.018" d="M6.5,8.5h10"/>
	<path fill="#FFFFFF" d="M17,5V4h3v15h-3v-1h2V5H17z"/>
	<path fill="#FFFFFF" d="M6,18v1H3V4h3v1H4v13H6z"/>
</g>
</svg>
