<?xml version="1.0" encoding="utf-8"?>
<!-- Generator: Adobe Illustrator 16.0.0, SVG Export Plug-In . SVG Version: 6.00 Build 0)  -->
<!DOCTYPE svg PUBLIC "-//W3C//DTD SVG 1.1//EN" "http://www.w3.org/Graphics/SVG/1.1/DTD/svg11.dtd">
<svg version="1.1" id="Layer_1" xmlns="http://www.w3.org/2000/svg" xmlns:xlink="http://www.w3.org/1999/xlink" x="0px" y="0px"
	 width="24px" height="24px" viewBox="0 0 24 24" enable-background="new 0 0 24 24" xml:space="preserve">
<g id="book" opacity="0.75">
	<path fill="#FFFFFF" d="M17,5V4h3v15h-3v-1h2V5H17z"/>
	<path fill="#FFFFFF" d="M6,18v1H3V4h3v1H4v13H6z"/>
	<path fill="#FFFFFF" d="M15,6v1H9c0,0-1-0.047-1,0.5C8,8,9,8,9,8h7v9H9c-1.5,0-2-0.947-2-1.5v-8C7,6.947,7,6,9.5,6H15z M14,10h-4v1
		h4V10z M13,12h-2v1h2V12z"/>
</g>
</svg>
