<?xml version="1.0" encoding="utf-8"?>
<!-- Generator: Adobe Illustrator 16.0.0, SVG Export Plug-In . SVG Version: 6.00 Build 0)  -->
<!DOCTYPE svg PUBLIC "-//W3C//DTD SVG 1.1//EN" "http://www.w3.org/Graphics/SVG/1.1/DTD/svg11.dtd">
<svg version="1.1" id="Layer_1" xmlns="http://www.w3.org/2000/svg" xmlns:xlink="http://www.w3.org/1999/xlink" x="0px" y="0px"
	 width="24px" height="24px" viewBox="0 0 24 24" enable-background="new 0 0 24 24" xml:space="preserve">
<g id="template" opacity="0.75">
	<path id="puzzel_piece" fill="#FFFFFF" d="M19.46,10.417c-0.351-0.404-1.642-0.501-1.983-0.162
		c-0.769,0.758-1.926,1.308-1.951,0.162c0.088-2.081,0.817-3.743,0.817-3.743c0-0.252-0.206-0.456-0.463-0.456
		c0,0-1.586-0.111-3.59-0.164l-1.25-0.001c-0.127,0.406,0.274,1.09,0.782,1.604c0.339,0.344,0.242,1.633-0.162,1.984
		c-0.393,0.34-1.197,0.539-1.662,0.539c-0.445,0-1.222-0.158-1.612-0.479c-0.438-0.356-0.332-1.686,0.02-2.044
		c0.47-0.476,0.838-1.185,0.721-1.606H8.644C6.57,6.101,5.13,6.218,5.13,6.218c-0.255,0-0.463,0.204-0.463,0.456
		c0,0-0.558,2.58-0.558,5.348c0,2.762,0.558,5.332,0.558,5.332c0,0.252,0.208,0.457,0.463,0.457c0,0,2.615,0.189,5.493,0.189
		c2.723,0,5.258-0.189,5.258-0.189c0.256,0,0.463-0.205,0.463-0.457c0,0-0.738-1.73-0.824-3.869
		c0.031-1.004,1.256-0.506,1.959,0.188c0.355,0.354,1.688,0.458,2.045,0.021C19.841,13.301,20,12.523,20,12.079
		C20,11.614,19.801,10.81,19.46,10.417z"/>
</g>
</svg>
