<?xml version="1.0" encoding="UTF-8" standalone="no"?>
<!-- Generator: Adobe Illustrator 18.1.1, SVG Export Plug-In . SVG Version: 6.00 Build 0)  -->

<svg
   xmlns:dc="http://purl.org/dc/elements/1.1/"
   xmlns:cc="http://creativecommons.org/ns#"
   xmlns:rdf="http://www.w3.org/1999/02/22-rdf-syntax-ns#"
   xmlns:svg="http://www.w3.org/2000/svg"
   xmlns="http://www.w3.org/2000/svg"
   xmlns:sodipodi="http://sodipodi.sourceforge.net/DTD/sodipodi-0.dtd"
   xmlns:inkscape="http://www.inkscape.org/namespaces/inkscape"
   version="1.1"
   id="Layer_1"
   x="0px"
   y="0px"
   viewBox="-1 -48 216 148"
   enable-background="new -1 -48 216 148"
   xml:space="preserve"
   inkscape:version="0.91 r13725"
   sodipodi:docname="logo-light.svg"><metadata
     id="metadata57"><rdf:RDF><cc:Work
         rdf:about=""><dc:format>image/svg+xml</dc:format><dc:type
           rdf:resource="http://purl.org/dc/dcmitype/StillImage" /></cc:Work></rdf:RDF></metadata><defs
     id="defs55" /><sodipodi:namedview
     pagecolor="#ffffff"
     bordercolor="#666666"
     borderopacity="1"
     objecttolerance="10"
     gridtolerance="10"
     guidetolerance="10"
     inkscape:pageopacity="0"
     inkscape:pageshadow="2"
     inkscape:window-width="2297"
     inkscape:window-height="1149"
     id="namedview53"
     showgrid="false"
     inkscape:zoom="1.4351852"
     inkscape:cx="108"
     inkscape:cy="74"
     inkscape:window-x="0"
     inkscape:window-y="0"
     inkscape:window-maximized="0"
     inkscape:current-layer="Layer_1" /><g
     id="g3"
     transform="translate(0,15.65)"><g
       id="g5"><polygon
         points="107.7,-46.5 107.7,-36.6 83,-18.2 94.8,13.3 92.8,13.3 79.1,-17.9 "
         id="polygon7"
         style="fill:#f48020" /><polygon
         points="120.8,-44.3 119.8,-36 95,-21.1 126.9,-38.6 125.6,-30.2 100.1,-20.4 132.2,-31.1 130,-23.9 93.4,-14.6 85.3,-17.9 "
         id="polygon9"
         style="fill:#ffffff" /><g
         id="g11"><path
           d="m 92.9,-12.8 11.3,35.9 29,-14.9 1.6,-31.4 -41.9,10.4 z m 32,20.4 c -1.4,1.3 -3,1.5 -4,2.4 -0.6,0.6 -0.9,1.6 -0.9,1.6 -1,-1.5 -2.1,-2 -3.3,-2.1 -1.2,-0.1 -3.2,0.4 -6.3,-1.6 -2.1,-1.4 -2.6,-3.5 -2.7,-4.7 0,-0.1 0,-0.1 0,-0.2 0,-0.1 0,-0.2 0,-0.3 0,-0.1 0,-0.4 0,-0.5 l 0,-0.1 0,0 c 0.2,-1.3 1,-2.5 2.7,-3.5 0,0 -0.9,2.1 0.6,3.8 0.9,1 2.6,1.4 3.6,0.3 0.5,-0.5 0.7,-1.2 0.8,-1.9 0.1,-1.3 -0.1,-2.7 -1.3,-3.4 -2,-1.2 -2.6,-3.2 -1.7,-4.6 0,0 0.7,2.4 2.2,2 1,-0.2 1,-1.3 0.7,-1.8 -0.4,-0.5 -3.4,-3.6 -0.2,-6.6 0,0 1.8,-1.7 4.4,-2.1 0.1,0 0.2,0 0.2,0 -1.4,0.5 -2.9,1.7 -3.3,3.2 l 0,0.1 c -0.3,1.7 0.4,3.2 1.6,4.5 0.9,1 2.1,1.7 2.6,3.2 -0.5,-0.1 -1,0.1 -1.3,0.5 -0.3,0.5 -0.4,1.3 -0.1,1.8 0.2,0.4 0.7,0.6 1.1,0.6 0.1,0 0.3,0 0.4,-0.1 0.1,0 0.1,-0.1 0.2,-0.1 0.5,-0.3 0.8,-1 0.5,-1.6 0.5,0.2 0.7,1.2 0.7,1.7 0,0.6 -0.1,1.1 -0.4,1.7 -0.2,0.4 -0.4,0.8 -0.5,1.3 -0.1,0.4 -0.1,0.8 -0.1,1.3 0,0.4 0.1,0.9 0.4,1.2 0.9,1 2.2,-0.4 2.4,-1.3 0.3,-1.2 -0.1,-2.5 -0.9,-3.4 0,0 1.5,0.5 2.8,2.9 1.3,1.8 0.5,4.5 -0.9,5.8 z"
           id="path13"
           inkscape:connector-curvature="0"
           style="fill:#f48020" /></g></g><g
       id="g15"><path
         d="m 27.6,61.4 c 0,0.4 -0.1,0.7 -0.2,1 l 0,0 C 27.3,62.8 27,63.2 26.6,63.5 23.6,65.8 20.3,67 16.5,67 11.9,67 8.1,65.4 4.9,62.3 1.8,59.3 0.2,55.5 0.2,51 0.2,46.5 1.8,42.8 5,39.7 8.2,36.6 12,35 16.6,35 c 3.8,0 7.1,1.2 10.1,3.5 0.6,0.4 0.9,1 1,1.7 0.1,0.7 -0.1,1.3 -0.5,1.9 -0.4,0.6 -1,0.9 -1.7,1 C 24.8,43.2 24.1,43 23.6,42.6 21.5,41 19,40.2 16.3,40.2 c -2.9,0 -5.4,1.1 -7.6,3.2 -2.2,2.1 -3.4,4.7 -3.4,7.7 0,3 1.1,5.6 3.4,7.7 2.3,2.1 4.9,3.2 7.9,3.2 2.1,0 4.2,-0.6 6.1,-1.7 l 0,-6.1 -6.3,0 c -0.7,0 -1.3,-0.3 -1.8,-0.8 -0.5,-0.5 -0.8,-1.1 -0.8,-1.8 0,-0.7 0.2,-1.3 0.7,-1.8 0.5,-0.5 1.1,-0.7 1.8,-0.7 l 8.7,0 c 0.7,0 1.3,0.2 1.8,0.7 0.5,0.5 0.8,1.1 0.8,1.8 l 0,9.8 0,0 z"
         id="path17"
         inkscape:connector-curvature="0"
         style="fill:#ffffff" /><path
         d="m 50.4,65.4 -2.2,-5.8 -10.7,0 -2.2,5.8 c -0.4,1 -1.1,1.6 -2.2,1.6 -1,0 -1.8,-0.4 -2.2,-1.1 -0.4,-0.7 -0.5,-1.5 -0.3,-2.3 l 9.8,-26.1 c 0.2,-0.5 0.5,-0.9 1,-1.2 0.4,-0.3 0.9,-0.4 1.4,-0.4 1.1,-0.1 1.9,0.5 2.4,1.6 L 55,63.6 c 0.3,0.8 0.2,1.5 -0.3,2.3 -0.4,0.7 -1.2,1.1 -2.2,1.1 -1,0 -1.7,-0.5 -2.1,-1.6 z m -11.1,-10.6 7.1,0 -3.6,-9.5 -3.5,9.5 z"
         id="path19"
         inkscape:connector-curvature="0"
         style="fill:#ffffff" /><path
         d="m 70.4,55.8 0,0 c -1,0 -1.6,-0.3 -2.1,-1 L 62,46 62,64.7 c 0,0.7 -0.2,1.3 -0.7,1.7 -0.5,0.5 -1.1,0.7 -1.8,0.7 -0.7,0 -1.3,-0.2 -1.7,-0.7 -0.5,-0.5 -0.7,-1.1 -0.7,-1.7 l 0,-26.3 c 0,-0.7 0.2,-1.3 0.7,-1.7 0.5,-0.5 1.1,-0.7 1.7,-0.7 l 0.1,0 c 0.9,0 1.5,0.3 2,1 L 70.3,49.2 79.1,37 c 0.5,-0.7 1.2,-1 2,-1 l 0,0 c 0.7,0 1.3,0.3 1.8,0.8 0.5,0.5 0.7,1 0.7,1.7 l 0,26.1 c 0,0.7 -0.2,1.2 -0.7,1.7 -0.5,0.5 -1.1,0.7 -1.8,0.7 -0.7,0 -1.3,-0.2 -1.7,-0.7 -0.5,-0.5 -0.7,-1.1 -0.7,-1.7 l 0,-18.7 -6.3,8.8 c -0.5,0.8 -1.2,1.1 -2,1.1 z"
         id="path21"
         inkscape:connector-curvature="0"
         style="fill:#ffffff" /><path
         d="M 90.3,67 C 89.6,67 89,66.8 88.6,66.3 88.1,65.8 87.9,65.2 87.9,64.6 l 0,-26.2 c 0,-0.7 0.2,-1.3 0.7,-1.7 0.5,-0.5 1.1,-0.7 1.7,-0.7 l 14.5,0 c 0.7,0 1.2,0.2 1.7,0.7 0.5,0.5 0.7,1.1 0.7,1.7 0,0.7 -0.2,1.3 -0.7,1.8 -0.5,0.5 -1.1,0.7 -1.7,0.7 l -12,0 0,8.1 10.3,0 c 0.7,0 1.2,0.2 1.7,0.7 0.5,0.5 0.7,1.1 0.7,1.7 0,0.7 -0.2,1.3 -0.7,1.7 -0.5,0.5 -1.1,0.7 -1.7,0.7 l -10.3,0 0,8.1 12,0 c 0.7,0 1.2,0.2 1.7,0.7 0.5,0.5 0.7,1.1 0.7,1.7 0,0.7 -0.2,1.3 -0.7,1.7 -0.5,0.5 -1.1,0.7 -1.7,0.7 l -14.4,0 -0.1,0 0,0.3 z"
         id="path23"
         inkscape:connector-curvature="0"
         style="fill:#ffffff" /><path
         d="m 127.9,38.7 c 1.9,1.9 2.8,4.1 2.8,6.7 0,2.6 -0.9,4.9 -2.8,6.7 -1.9,1.9 -4.1,2.8 -6.7,2.8 l -5.5,0 0,9.6 c 0,0.7 -0.2,1.3 -0.7,1.7 -0.5,0.5 -1.1,0.7 -1.8,0.7 -0.7,0 -1.3,-0.2 -1.7,-0.7 -0.5,-0.5 -0.7,-1.1 -0.7,-1.7 l 0,-26.1 c 0,-0.7 0.2,-1.3 0.7,-1.7 0.5,-0.5 1.1,-0.7 1.7,-0.7 l 7.9,0 c 2.7,-0.1 5,0.8 6.8,2.7 z m -12.2,2.2 0,9.1 5.5,0 c 1.3,0 2.4,-0.4 3.3,-1.3 0.9,-0.9 1.4,-2 1.4,-3.2 0,-1.3 -0.5,-2.4 -1.4,-3.3 -0.9,-0.9 -2,-1.3 -3.3,-1.3 l -5.5,0 0,0 z"
         id="path25"
         inkscape:connector-curvature="0"
         style="fill:#f48020" /><path
         d="m 135.6,67 c -0.7,0 -1.3,-0.2 -1.7,-0.7 -0.5,-0.5 -0.7,-1.1 -0.7,-1.7 l 0,-26.2 c 0,-0.7 0.2,-1.3 0.7,-1.7 0.5,-0.5 1.1,-0.7 1.7,-0.7 l 14.5,0 c 0.7,0 1.2,0.2 1.7,0.7 0.5,0.5 0.7,1.1 0.7,1.7 0,0.7 -0.2,1.3 -0.7,1.8 -0.5,0.5 -1.1,0.7 -1.7,0.7 l -12,0 0,8.1 10.3,0 c 0.7,0 1.2,0.2 1.7,0.7 0.5,0.5 0.7,1.1 0.7,1.7 0,0.7 -0.2,1.3 -0.7,1.7 -0.5,0.5 -1.1,0.7 -1.7,0.7 l -10.3,0 0,8.1 12,0 c 0.7,0 1.2,0.2 1.7,0.7 0.5,0.5 0.7,1.1 0.7,1.7 0,0.7 -0.2,1.3 -0.7,1.7 -0.5,0.5 -1.1,0.7 -1.7,0.7 l -14.3,0 -0.2,0 0,0.3 z"
         id="path27"
         inkscape:connector-curvature="0"
         style="fill:#f48020" /><path
         d="m 155.4,64.6 0,-26.2 c 0,-0.7 0.2,-1.3 0.7,-1.7 0.5,-0.5 1.1,-0.7 1.7,-0.7 l 5.3,0 c 4.3,0 7.9,1.5 10.9,4.6 3,3.1 4.6,6.6 4.6,11 0,4.3 -1.5,7.9 -4.6,11 -3,3.1 -6.6,4.6 -10.9,4.6 l -5.3,0 c -0.7,0 -1.3,-0.2 -1.7,-0.7 -0.5,-0.7 -0.7,-1.3 -0.7,-1.9 z m 5,-23.7 0,21.2 2.8,0 c 3,0 5.5,-1.1 7.4,-3.2 2.1,-2.1 3.1,-4.6 3.1,-7.4 0,-3 -1,-5.5 -3.1,-7.5 -2.1,-2.1 -4.6,-3.1 -7.4,-3.1 0,0 -2.8,0 -2.8,0 z"
         id="path29"
         inkscape:connector-curvature="0"
         style="fill:#f48020" /><path
         d="m 182,38.4 c 0,-0.7 0.2,-1.3 0.7,-1.7 0.5,-0.5 1.1,-0.7 1.7,-0.7 0.7,0 1.3,0.2 1.8,0.7 0.5,0.5 0.7,1.1 0.7,1.7 l 0,26.2 c 0,0.7 -0.2,1.3 -0.7,1.7 -0.5,0.5 -1.1,0.7 -1.8,0.7 -0.7,0 -1.3,-0.2 -1.7,-0.7 -0.5,-0.5 -0.7,-1.1 -0.7,-1.7 l 0,-26.2 z"
         id="path31"
         inkscape:connector-curvature="0"
         style="fill:#f48020" /><path
         d="m 209.1,65.4 -2.2,-5.8 -10.8,0 -2.2,5.8 c -0.4,1 -1.1,1.6 -2.2,1.6 -1,0 -1.8,-0.4 -2.2,-1.1 -0.4,-0.7 -0.5,-1.5 -0.3,-2.3 L 199,37.5 c 0.2,-0.5 0.5,-0.9 1,-1.2 0.4,-0.3 0.9,-0.4 1.4,-0.4 1.1,-0.1 1.9,0.5 2.4,1.6 l 9.8,26.1 c 0.3,0.8 0.2,1.5 -0.3,2.3 -0.4,0.7 -1.2,1.1 -2.2,1.1 -0.9,0 -1.6,-0.5 -2,-1.6 z M 198,54.8 l 7.1,0 -3.6,-9.5 -3.5,9.5 z"
         id="path33"
         inkscape:connector-curvature="0"
         style="fill:#f48020" /></g></g></svg>