<?xml version="1.0" encoding="utf-8"?>
<!-- Generator: Adobe Illustrator 18.1.1, SVG Export Plug-In . SVG Version: 6.00 Build 0)  -->
<svg version="1.1" id="Layer_1" xmlns="http://www.w3.org/2000/svg" xmlns:xlink="http://www.w3.org/1999/xlink" x="0px" y="0px"
	 viewBox="-1 -48 216 148" enable-background="new -1 -48 216 148" xml:space="preserve">
<g>
	<g>
		<polygon fill="#F48020" points="79.1,-17.9 107.7,-46.5 107.7,-36.6 83,-18.2 94.8,13.3 92.8,13.3 		"/>
		<polygon fill="#FFFFFF" points="85.3,-17.9 120.8,-44.3 119.8,-36 95,-21.1 126.9,-38.6 125.6,-30.2 100.1,-20.4 132.2,-31.1 
			130,-23.9 93.4,-14.6 		"/>
		<g>
			<path fill="#F48020" d="M92.9-12.8l11.3,35.9l29-14.9l1.6-31.4L92.9-12.8z M124.9,7.6c-1.4,1.3-3,1.5-4,2.4
				c-0.6,0.6-0.9,1.6-0.9,1.6c-1-1.5-2.1-2-3.3-2.1s-3.2,0.4-6.3-1.6c-2.1-1.4-2.6-3.5-2.7-4.7c0-0.1,0-0.1,0-0.2c0-0.1,0-0.2,0-0.3
				s0-0.4,0-0.5V2.1l0,0c0.2-1.3,1-2.5,2.7-3.5c0,0-0.9,2.1,0.6,3.8c0.9,1,2.6,1.4,3.6,0.3c0.5-0.5,0.7-1.2,0.8-1.9
				c0.1-1.3-0.1-2.7-1.3-3.4c-2-1.2-2.6-3.2-1.7-4.6c0,0,0.7,2.4,2.2,2c1-0.2,1-1.3,0.7-1.8c-0.4-0.5-3.4-3.6-0.2-6.6
				c0,0,1.8-1.7,4.4-2.1c0.1,0,0.2,0,0.2,0c-1.4,0.5-2.9,1.7-3.3,3.2v0.1c-0.3,1.7,0.4,3.2,1.6,4.5c0.9,1,2.1,1.7,2.6,3.2
				c-0.5-0.1-1,0.1-1.3,0.5c-0.3,0.5-0.4,1.3-0.1,1.8c0.2,0.4,0.7,0.6,1.1,0.6c0.1,0,0.3,0,0.4-0.1c0.1,0,0.1-0.1,0.2-0.1
				c0.5-0.3,0.8-1,0.5-1.6c0.5,0.2,0.7,1.2,0.7,1.7c0,0.6-0.1,1.1-0.4,1.7c-0.2,0.4-0.4,0.8-0.5,1.3c-0.1,0.4-0.1,0.8-0.1,1.3
				c0,0.4,0.1,0.9,0.4,1.2c0.9,1,2.2-0.4,2.4-1.3c0.3-1.2-0.1-2.5-0.9-3.4c0,0,1.5,0.5,2.8,2.9C127.1,3.6,126.3,6.3,124.9,7.6z"/>
		</g>
	</g>
	<g>
		<path fill="#FFFFFF" d="M27.6,61.4c0,0.4-0.1,0.7-0.2,1l0,0c-0.1,0.4-0.4,0.8-0.8,1.1c-3,2.3-6.3,3.5-10.1,3.5
			c-4.6,0-8.4-1.6-11.6-4.7C1.8,59.3,0.2,55.5,0.2,51s1.6-8.2,4.8-11.3c3.2-3.1,7-4.7,11.6-4.7c3.8,0,7.1,1.2,10.1,3.5
			c0.6,0.4,0.9,1,1,1.7c0.1,0.7-0.1,1.3-0.5,1.9c-0.4,0.6-1,0.9-1.7,1c-0.7,0.1-1.4-0.1-1.9-0.5c-2.1-1.6-4.6-2.4-7.3-2.4
			c-2.9,0-5.4,1.1-7.6,3.2c-2.2,2.1-3.4,4.7-3.4,7.7c0,3,1.1,5.6,3.4,7.7c2.3,2.1,4.9,3.2,7.9,3.2c2.1,0,4.2-0.6,6.1-1.7v-6.1h-6.3
			c-0.7,0-1.3-0.3-1.8-0.8s-0.8-1.1-0.8-1.8c0-0.7,0.2-1.3,0.7-1.8c0.5-0.5,1.1-0.7,1.8-0.7H25c0.7,0,1.3,0.2,1.8,0.7
			c0.5,0.5,0.8,1.1,0.8,1.8L27.6,61.4L27.6,61.4z"/>
		<path fill="#FFFFFF" d="M50.4,65.4l-2.2-5.8H37.5l-2.2,5.8c-0.4,1-1.1,1.6-2.2,1.6c-1,0-1.8-0.4-2.2-1.1c-0.4-0.7-0.5-1.5-0.3-2.3
			l9.8-26.1c0.2-0.5,0.5-0.9,1-1.2c0.4-0.3,0.9-0.4,1.4-0.4c1.1-0.1,1.9,0.5,2.4,1.6L55,63.6c0.3,0.8,0.2,1.5-0.3,2.3
			c-0.4,0.7-1.2,1.1-2.2,1.1C51.5,67,50.8,66.5,50.4,65.4z M39.3,54.8h7.1l-3.6-9.5L39.3,54.8z"/>
		<path fill="#FFFFFF" d="M70.4,55.8L70.4,55.8c-1,0-1.6-0.3-2.1-1L62,46v18.7c0,0.7-0.2,1.3-0.7,1.7c-0.5,0.5-1.1,0.7-1.8,0.7
			s-1.3-0.2-1.7-0.7c-0.5-0.5-0.7-1.1-0.7-1.7V38.4c0-0.7,0.2-1.3,0.7-1.7c0.5-0.5,1.1-0.7,1.7-0.7h0.1c0.9,0,1.5,0.3,2,1l8.7,12.2
			L79.1,37c0.5-0.7,1.2-1,2-1l0,0c0.7,0,1.3,0.3,1.8,0.8s0.7,1,0.7,1.7v26.1c0,0.7-0.2,1.2-0.7,1.7S81.8,67,81.1,67
			s-1.3-0.2-1.7-0.7c-0.5-0.5-0.7-1.1-0.7-1.7V45.9l-6.3,8.8C71.9,55.5,71.2,55.8,70.4,55.8z"/>
		<path fill="#FFFFFF" d="M90.3,67c-0.7,0-1.3-0.2-1.7-0.7c-0.5-0.5-0.7-1.1-0.7-1.7V38.4c0-0.7,0.2-1.3,0.7-1.7
			c0.5-0.5,1.1-0.7,1.7-0.7h14.5c0.7,0,1.2,0.2,1.7,0.7s0.7,1.1,0.7,1.7c0,0.7-0.2,1.3-0.7,1.8c-0.5,0.5-1.1,0.7-1.7,0.7h-12V49
			h10.3c0.7,0,1.2,0.2,1.7,0.7s0.7,1.1,0.7,1.7c0,0.7-0.2,1.3-0.7,1.7c-0.5,0.5-1.1,0.7-1.7,0.7H92.8v8.1h12c0.7,0,1.2,0.2,1.7,0.7
			c0.5,0.5,0.7,1.1,0.7,1.7c0,0.7-0.2,1.3-0.7,1.7c-0.5,0.5-1.1,0.7-1.7,0.7H90.4h-0.1V67z"/>
		<path fill="#F48020" d="M127.9,38.7c1.9,1.9,2.8,4.1,2.8,6.7c0,2.6-0.9,4.9-2.8,6.7c-1.9,1.9-4.1,2.8-6.7,2.8h-5.5v9.6
			c0,0.7-0.2,1.3-0.7,1.7c-0.5,0.5-1.1,0.7-1.8,0.7c-0.7,0-1.3-0.2-1.7-0.7c-0.5-0.5-0.7-1.1-0.7-1.7V38.4c0-0.7,0.2-1.3,0.7-1.7
			c0.5-0.5,1.1-0.7,1.7-0.7h7.9C123.8,35.9,126.1,36.8,127.9,38.7z M115.7,40.9V50h5.5c1.3,0,2.4-0.4,3.3-1.3c0.9-0.9,1.4-2,1.4-3.2
			c0-1.3-0.5-2.4-1.4-3.3c-0.9-0.9-2-1.3-3.3-1.3L115.7,40.9L115.7,40.9z"/>
		<path fill="#F48020" d="M135.6,67c-0.7,0-1.3-0.2-1.7-0.7c-0.5-0.5-0.7-1.1-0.7-1.7V38.4c0-0.7,0.2-1.3,0.7-1.7
			c0.5-0.5,1.1-0.7,1.7-0.7h14.5c0.7,0,1.2,0.2,1.7,0.7c0.5,0.5,0.7,1.1,0.7,1.7c0,0.7-0.2,1.3-0.7,1.8c-0.5,0.5-1.1,0.7-1.7,0.7
			h-12V49h10.3c0.7,0,1.2,0.2,1.7,0.7c0.5,0.5,0.7,1.1,0.7,1.7c0,0.7-0.2,1.3-0.7,1.7c-0.5,0.5-1.1,0.7-1.7,0.7h-10.3v8.1h12
			c0.7,0,1.2,0.2,1.7,0.7c0.5,0.5,0.7,1.1,0.7,1.7c0,0.7-0.2,1.3-0.7,1.7c-0.5,0.5-1.1,0.7-1.7,0.7h-14.3h-0.2V67z"/>
		<path fill="#F48020" d="M155.4,64.6V38.4c0-0.7,0.2-1.3,0.7-1.7c0.5-0.5,1.1-0.7,1.7-0.7h5.3c4.3,0,7.9,1.5,10.9,4.6
			c3,3.1,4.6,6.6,4.6,11c0,4.3-1.5,7.9-4.6,11c-3,3.1-6.6,4.6-10.9,4.6h-5.3c-0.7,0-1.3-0.2-1.7-0.7
			C155.6,65.8,155.4,65.2,155.4,64.6z M160.4,40.9v21.2h2.8c3,0,5.5-1.1,7.4-3.2c2.1-2.1,3.1-4.6,3.1-7.4c0-3-1-5.5-3.1-7.5
			c-2.1-2.1-4.6-3.1-7.4-3.1C163.2,40.9,160.4,40.9,160.4,40.9z"/>
		<path fill="#F48020" d="M182,38.4c0-0.7,0.2-1.3,0.7-1.7c0.5-0.5,1.1-0.7,1.7-0.7c0.7,0,1.3,0.2,1.8,0.7c0.5,0.5,0.7,1.1,0.7,1.7
			v26.2c0,0.7-0.2,1.3-0.7,1.7c-0.5,0.5-1.1,0.7-1.8,0.7s-1.3-0.2-1.7-0.7c-0.5-0.5-0.7-1.1-0.7-1.7V38.4z"/>
		<path fill="#F48020" d="M209.1,65.4l-2.2-5.8h-10.8l-2.2,5.8c-0.4,1-1.1,1.6-2.2,1.6c-1,0-1.8-0.4-2.2-1.1
			c-0.4-0.7-0.5-1.5-0.3-2.3l9.8-26.1c0.2-0.5,0.5-0.9,1-1.2c0.4-0.3,0.9-0.4,1.4-0.4c1.1-0.1,1.9,0.5,2.4,1.6l9.8,26.1
			c0.3,0.8,0.2,1.5-0.3,2.3c-0.4,0.7-1.2,1.1-2.2,1.1C210.2,67,209.5,66.5,209.1,65.4z M198,54.8h7.1l-3.6-9.5L198,54.8z"/>
	</g>
	<g>
		<path fill="#FFFFFF" d="M127.1,90.8c-0.7-1.9-0.9-1.3-0.9-1.3c-0.1,0.3-0.2,0.6-0.6,1.4c-0.3,0.7-1.8,1.2-2.3,0.3
			c-0.3-0.4-0.2-1-0.1-1.4c0.1-0.3,0.3-0.5,0.5-0.7c0.6-0.4,1-0.7,1.2-1.4c0.1-0.5,0-1-0.3-1.4c0.1,0.5-0.3,1-0.8,1.1
			c-0.5,0.1-1-0.3-1.1-0.8c-0.1-0.5,0.2-1,0.7-1.2c0.2-0.1,0.3-0.1,0.5-0.1c0,0,0.1,0,0.1-0.1v-0.1c-0.2-1-0.9-1.7-1.5-2.5
			c-0.7-1.1-1.1-2.4-0.6-3.6V79c0.4-1.1,1.7-1.8,2.8-2c-0.1,0-0.1,0-0.2,0c-1.9,0-3.5,1-3.5,1c-2.8,1.9-0.8,4.9-0.6,5.3
			c0.2,0.4,0.1,1.2-0.7,1.2c-1.2,0.1-1.5-2-1.5-2c-0.9,0.9-0.6,2.5,0.7,3.7c0.8,0.7,0.8,1.7,0.6,2.7c-0.1,0.5-0.4,1-0.9,1.3
			c-0.9,0.7-2.1,0.2-2.7-0.7c-0.9-1.5,0-2.9,0-2.9c-1.4,0.6-2.2,1.4-2.5,2.3l0,0c0,0.1-0.1,0.3-0.1,0.4c0,0.1,0,0.1,0,0.2
			c0,0.1,0,0.1,0,0.2c-0.1,0.9,0,2.5,1.4,3.8c2.1,1.9,3.6,1.8,4.5,2c0.9,0.2,1.6,0.7,2.2,2c0,0,0.4-0.7,0.9-1.1
			c0.8-0.6,2.1-0.6,3.3-1.3C126.8,94.5,127.8,92.6,127.1,90.8z"/>
		<g>
			<path fill="#FFFFFF" d="M181.7,86.9c-1-0.6-2.4-1.2-2.4-2.1c0-0.9,0.7-1.5,1.8-1.5c1,0,2.2,0.4,2.9,2h0.5l-0.3-1.8l-0.2-1
				c-2.1-0.8-4.3-0.4-4.3-0.4l0,0c-1.9,0.3-3.2,1.5-3.2,3.3c0,1.4,1,2.8,2.6,3.6c2.1,1.1,3.1,1.8,3.1,2.9c0,1.2-0.9,1.8-2.3,1.8
				c-1.6,0-2.5-0.9-3-2.7h-0.7l0.5,3.3c0.6,0.2,1.9,0.8,3.5,0.8c2.7,0,4.7-1.9,4.7-3.6C185.2,89.3,184.1,88.2,181.7,86.9z"/>
			<path fill="#FFFFFF" d="M196.7,91.4c-0.8,1.2-1.1,1.6-2.5,1.6c0,0-1.7,0-1.9,0c-0.9,0-0.9-0.1-0.9-1v-3h2.2
				c0.4,0,0.7,0.5,0.8,0.9h0.2c0.3-0.7,0.8-1.2,1.5-1.5v-0.3c-0.7-0.3-1.2-0.8-1.5-1.5h-0.3c-0.1,0.3-0.4,0.9-0.8,0.9h-2.2v-3.2h3.2
				c1.2,0,1.3,0.1,1.6,1.4h0.6l-0.4-3.2h-9.7V83l0,0v0.2c0.1,0,0.2,0,0.3,0c1.3,0.1,1.5,0.5,1.5,1.6v7.8c0,1.1-0.2,1.5-1.5,1.6
				c-0.1,0-0.2,0-0.3,0v0.2l0,0v0.5h9.7l1-3.4L196.7,91.4z"/>
			<path fill="#FFFFFF" d="M152.6,83c0.1,0,0.2,0,0.3,0c1.3,0,1.5,0.5,1.5,1.6v6.7c-0.5,1-1.5,1.8-2.5,1.8c-1.2,0-2.2-0.8-2.2-2.9
				v-5.7c0-1.1,0.2-1.6,1.5-1.6c0.2,0,0.2,0,0.3,0v-0.7h-6.5V83c0.1,0,0.2,0,0.3,0c1.3,0,1.5,0.5,1.5,1.6v5.7c0,3.2,1.7,4.5,4,4.5
				c1.4,0,2.8-0.7,3.7-1.8v1.2v0.5v0.2h4.8v-0.6l0,0H159c-0.1,0-0.1,0-0.2,0c-1.3-0.2-1.5-0.5-1.5-1.6v-7.8c0-1.1,0.2-1.6,1.5-1.6
				c0.1,0,0.2,0,0.3,0l0,0v-0.7h-6.5V83z"/>
			<path fill="#FFFFFF" d="M138.5,93.3c-2.7,0-4.6-1.8-4.8-4.7c-0.1-2.7,1.7-5.1,4.3-5.1c1.8,0,3.3,0.7,3.6,2.3h0.5l-0.1-2.3v-0.9
				c-1.2-0.4-2.7-0.5-3.6-0.6c-0.2,0-0.5,0-0.7,0c-4.2,0-7.1,2.8-7.1,6.6c0,4,3.2,6.3,7.1,6.3c1.5,0,3.6-0.5,4.4-1l0.3-3.2h-0.6
				C141.6,92.9,140.3,93.3,138.5,93.3z"/>
			<path fill="#FFFFFF" d="M175,94.6l-3.9-6c1.1-0.7,1.9-1.8,1.9-3.2c0-1.8-1.6-3.2-4.4-3.2c0,0-0.1,0-0.2,0l0,0h-6.5v0.3v0.3
				c0,0,0.6,0,0.7,0c0.2,0,0.5,0.1,0.7,0.2c0.5,0.3,0.5,0.9,0.5,1.4v7.8c0,0.2,0,0.4,0,0.6c0,0.3-0.1,0.6-0.4,0.8
				c-0.1,0.1-0.2,0.1-0.3,0.1c-0.2,0.1-0.4,0.1-0.6,0.1H162v0.6l0,0h6.5v-0.4l0,0v-0.2c-0.1,0-0.2,0-0.3,0c-1.3-0.1-1.5-0.5-1.5-1.6
				v-3.1c0.4,0,0.8,0.1,1.3,0.1l5.7,5.1l0,0l0.7,0.6c0,0,0.1,0.1,0.2,0.1c0.3,0.2,0.9,0.1,0.8-0.2C175.3,95,175.3,94.9,175,94.6z
				 M167.7,88.5c-0.4,0-1-0.1-1-0.1V88v-3.7v-0.6c0.2,0,0.5,0,1.2,0c1.5,0,2.2,1.1,2.2,2.3C170.1,87.5,169,88.5,167.7,88.5z"/>
		</g>
		<text transform="matrix(1 0 0 1 13.5 94.6059)" fill="#FFFFFF" font-family="'MyriadPro-Regular', 'Noto Sans', 'Open Sans', sans-serif" font-size="15.6" font-weight="200">Powered By  |</text>
	</g>
</g>
</svg>
