<?xml version="1.0" encoding="utf-8"?>
<!-- Generator: Adobe Illustrator 18.1.1, SVG Export Plug-In . SVG Version: 6.00 Build 0)  -->
<svg version="1.1" id="Layer_1" xmlns="http://www.w3.org/2000/svg" xmlns:xlink="http://www.w3.org/1999/xlink" x="0px" y="0px"
	 viewBox="0 0 214 52" enable-background="new 0 0 214 52" xml:space="preserve">
<g>
	<g>
		<polygon fill="#F48020" points="0.6,21.4 20.6,1.5 20.6,8.4 3.3,21.2 11.5,43.2 10.2,43.2 		"/>
		<polygon fill="#FFFFFF" points="4.9,21.4 29.7,3 29,8.8 11.7,19.2 34,7 33.1,12.8 15.3,19.6 37.7,12.2 36.2,17.2 10.6,23.7 		"/>
		<g>
			<path fill="#F48020" d="M10.2,25l7.9,25l20.3-10.4l1.1-21.9L10.2,25z M32.6,39.2c-0.9,0.9-2.1,1.1-2.8,1.7
				c-0.4,0.4-0.6,1.1-0.6,1.1c-0.7-1.1-1.5-1.4-2.3-1.4c-0.8-0.1-2.2,0.3-4.4-1.1c-1.5-1-1.8-2.4-1.9-3.3c0,0,0-0.1,0-0.1
				c0-0.1,0-0.1,0-0.2c0-0.1,0-0.2,0-0.3c0,0,0,0,0,0c0,0,0,0,0,0c0.1-0.9,0.7-1.7,1.9-2.5c0,0-0.6,1.4,0.4,2.6
				c0.6,0.7,1.8,0.9,2.5,0.2c0.3-0.3,0.5-0.8,0.6-1.3c0.1-0.9-0.1-1.9-0.9-2.4c-1.4-0.8-1.8-2.2-1.2-3.2c0,0,0.5,1.6,1.5,1.4
				c0.7-0.2,0.7-0.9,0.5-1.2c-0.3-0.3-2.4-2.5-0.2-4.6c0,0,1.3-1.2,3-1.5c0.1,0,0.1,0,0.2,0c-1,0.3-2,1.2-2.3,2.2c0,0,0,0,0,0.1
				c-0.2,1.2,0.3,2.2,1.1,3.1c0.6,0.7,1.4,1.2,1.8,2.2c-0.4-0.1-0.7,0.1-0.9,0.4c-0.2,0.4-0.3,0.9,0,1.2c0.2,0.2,0.5,0.4,0.7,0.4
				c0.1,0,0.2,0,0.3-0.1c0.1,0,0.1,0,0.1-0.1c0.3-0.2,0.5-0.7,0.3-1.1c0.4,0.2,0.5,0.9,0.5,1.2c0,0.4-0.1,0.8-0.3,1.1
				c-0.1,0.3-0.3,0.6-0.4,0.9C30,34.8,30,35.1,30,35.3c0,0.3,0.1,0.6,0.3,0.9c0.6,0.7,1.5-0.3,1.7-0.9c0.2-0.8-0.1-1.8-0.6-2.4
				c0,0,1,0.3,1.9,2C34.1,36.4,33.5,38.3,32.6,39.2z"/>
		</g>
	</g>
	<g>
		<path fill="#FFFFFF" d="M69.5,26.1c0,0.3-0.1,0.5-0.2,0.8v0c-0.1,0.3-0.3,0.6-0.7,0.8c-2.3,1.8-4.9,2.7-7.8,2.7
			c-3.5,0-6.5-1.2-9-3.6c-2.5-2.4-3.7-5.3-3.7-8.8s1.2-6.4,3.7-8.8c2.5-2.4,5.5-3.6,9-3.6c3,0,5.6,0.9,7.8,2.7
			c0.4,0.3,0.7,0.8,0.8,1.3c0.1,0.6-0.1,1-0.4,1.5c-0.3,0.4-0.8,0.7-1.3,0.7c-0.6,0.1-1-0.1-1.5-0.4c-1.6-1.2-3.5-1.9-5.7-1.9
			c-2.2,0-4.2,0.8-5.9,2.5c-1.7,1.7-2.6,3.6-2.6,6c0,2.3,0.9,4.3,2.6,6c1.7,1.7,3.8,2.5,6.2,2.5c1.6,0,3.2-0.4,4.7-1.3v-4.7h-4.9
			c-0.5,0-1-0.2-1.4-0.6c-0.4-0.4-0.6-0.9-0.6-1.4c0-0.5,0.2-1,0.6-1.4c0.4-0.4,0.8-0.6,1.4-0.6h6.8c0.6,0,1,0.2,1.4,0.6
			c0.4,0.4,0.6,0.8,0.6,1.4V26.1z"/>
		<path fill="#FFFFFF" d="M87.1,29.2l-1.7-4.5h-8.4l-1.7,4.5c-0.3,0.8-0.9,1.2-1.7,1.2c-0.8,0-1.4-0.3-1.7-0.8
			c-0.3-0.6-0.4-1.1-0.2-1.7l7.6-20.3c0.2-0.4,0.4-0.7,0.7-0.9c0.3-0.2,0.7-0.3,1.1-0.3c0.9,0,1.5,0.4,1.8,1.2l7.6,20.3
			c0.2,0.6,0.1,1.2-0.2,1.7c-0.3,0.6-0.9,0.8-1.7,0.8C88,30.4,87.4,30,87.1,29.2z M78.5,20.9H84l-2.8-7.4L78.5,20.9z"/>
		<path fill="#FFFFFF" d="M102.6,21.7L102.6,21.7c-0.7,0-1.3-0.3-1.7-0.8L96,14v14.5c0,0.5-0.2,1-0.6,1.3c-0.4,0.4-0.8,0.6-1.4,0.6
			c-0.5,0-1-0.2-1.3-0.6c-0.4-0.4-0.6-0.8-0.6-1.3V8.2c0-0.5,0.2-1,0.6-1.3c0.4-0.4,0.8-0.6,1.3-0.6h0.1c0.7,0,1.2,0.3,1.5,0.8
			l6.8,9.5l6.8-9.5c0.4-0.5,0.9-0.8,1.5-0.8h0c0.5,0,1,0.2,1.4,0.6c0.4,0.4,0.6,0.8,0.6,1.3v20.3c0,0.5-0.2,0.9-0.6,1.3
			c-0.4,0.4-0.8,0.6-1.4,0.6c-0.5,0-1-0.2-1.3-0.6c-0.4-0.4-0.6-0.8-0.6-1.3V14l-5,6.9C103.8,21.4,103.2,21.7,102.6,21.7z"/>
		<path fill="#FFFFFF" d="M118.1,30.4c-0.5,0-1-0.2-1.3-0.6c-0.4-0.4-0.6-0.8-0.6-1.3V8.2c0-0.5,0.2-1,0.6-1.3
			c0.4-0.4,0.8-0.6,1.3-0.6h11.2c0.5,0,0.9,0.2,1.3,0.6c0.4,0.4,0.6,0.8,0.6,1.3c0,0.5-0.2,1-0.6,1.4c-0.4,0.4-0.8,0.6-1.3,0.6H120
			v6.3h8c0.5,0,0.9,0.2,1.3,0.6c0.4,0.4,0.6,0.8,0.6,1.3c0,0.5-0.2,1-0.5,1.3c-0.4,0.4-0.8,0.6-1.3,0.6h-8v6.3h9.3
			c0.5,0,0.9,0.2,1.3,0.6c0.4,0.4,0.6,0.8,0.6,1.3c0,0.5-0.2,1-0.6,1.3c-0.4,0.4-0.8,0.6-1.3,0.6h-11.1H118.1L118.1,30.4z"/>
		<path fill="#F48020" d="M147.2,8.5c1.4,1.4,2.2,3.2,2.2,5.2c0,2-0.7,3.8-2.2,5.2c-1.4,1.4-3.2,2.1-5.2,2.1h-4.2v7.5
			c0,0.5-0.2,1-0.6,1.3c-0.4,0.4-0.8,0.6-1.4,0.6c-0.5,0-1-0.2-1.3-0.6c-0.4-0.4-0.6-0.8-0.6-1.3V8.2c0-0.5,0.2-1,0.6-1.3
			c0.4-0.4,0.8-0.6,1.3-0.6h6.2C144,6.3,145.8,7,147.2,8.5z M137.7,10.1v7.1h4.2c1,0,1.8-0.3,2.5-1c0.7-0.7,1-1.5,1.1-2.5
			c0-1-0.4-1.9-1.1-2.5c-0.7-0.7-1.5-1-2.5-1H137.7z"/>
		<path fill="#F48020" d="M153.2,30.4c-0.5,0-1-0.2-1.3-0.6c-0.4-0.4-0.5-0.8-0.5-1.3V8.2c0-0.5,0.2-1,0.5-1.3
			c0.4-0.4,0.8-0.6,1.3-0.6h11.2c0.5,0,0.9,0.2,1.3,0.6c0.4,0.4,0.6,0.8,0.6,1.3c0,0.5-0.2,1-0.6,1.4c-0.4,0.4-0.8,0.6-1.3,0.6h-9.3
			v6.3h8c0.5,0,0.9,0.2,1.3,0.6c0.4,0.4,0.6,0.8,0.6,1.3c0,0.5-0.2,1-0.6,1.3c-0.4,0.4-0.8,0.6-1.3,0.6h-8v6.3h9.3
			c0.5,0,0.9,0.2,1.3,0.6c0.4,0.4,0.6,0.8,0.6,1.3c0,0.5-0.2,1-0.6,1.3c-0.4,0.4-0.8,0.6-1.3,0.6h-11.1H153.2L153.2,30.4z"/>
		<path fill="#F48020" d="M168.5,28.5V8.2c0-0.5,0.2-1,0.6-1.3c0.4-0.4,0.8-0.6,1.3-0.6h4.1c3.3,0,6.2,1.2,8.5,3.5
			c2.3,2.4,3.5,5.2,3.5,8.5c0,3.3-1.2,6.2-3.5,8.5c-2.3,2.4-5.2,3.5-8.5,3.5h-4.1c-0.5,0-1-0.2-1.3-0.6
			C168.7,29.4,168.5,29,168.5,28.5z M172.3,10.1v16.4h2.1c2.3,0,4.2-0.8,5.8-2.4c1.6-1.6,2.4-3.5,2.4-5.8c0-2.3-0.8-4.2-2.4-5.8
			c-1.6-1.6-3.5-2.4-5.8-2.4H172.3z"/>
		<path fill="#F48020" d="M189.1,8.2c0-0.5,0.2-1,0.5-1.3c0.4-0.4,0.8-0.6,1.3-0.6c0.5,0,1,0.2,1.4,0.6c0.4,0.4,0.6,0.8,0.6,1.3
			v20.3c0,0.5-0.2,1-0.6,1.3c-0.4,0.4-0.8,0.6-1.4,0.6c-0.5,0-1-0.2-1.3-0.6c-0.4-0.4-0.5-0.8-0.5-1.3V8.2z"/>
		<path fill="#F48020" d="M210.2,29.2l-1.7-4.5h-8.4l-1.7,4.5c-0.3,0.8-0.9,1.2-1.7,1.2c-0.8,0-1.4-0.3-1.7-0.8
			c-0.3-0.6-0.4-1.1-0.2-1.7l7.6-20.3c0.2-0.4,0.4-0.7,0.7-0.9c0.3-0.2,0.7-0.3,1.1-0.3c0.9,0,1.5,0.4,1.8,1.2l7.6,20.3
			c0.2,0.6,0.1,1.2-0.2,1.7c-0.3,0.6-0.9,0.8-1.7,0.8C211,30.4,210.5,30,210.2,29.2z M201.5,20.9h5.6l-2.8-7.4L201.5,20.9z"/>
	</g>
	<g>
		<path fill="#FFFFFF" d="M137.1,45c-0.5-1.4-0.6-0.9-0.6-0.9c-0.1,0.2-0.2,0.4-0.4,1c-0.2,0.5-1.3,0.8-1.7,0.2
			c-0.2-0.3-0.2-0.7-0.1-1c0.1-0.2,0.2-0.4,0.4-0.5c0.4-0.3,0.8-0.5,0.8-1c0.1-0.3,0-0.7-0.2-1c0.1,0.4-0.2,0.7-0.6,0.8
			c-0.4,0-0.7-0.2-0.8-0.6c-0.1-0.4,0.2-0.7,0.5-0.9c0.1,0,0.3-0.1,0.4-0.1c0,0,0.1,0,0.1,0c0,0,0,0,0-0.1c-0.1-0.7-0.7-1.2-1.1-1.8
			c-0.5-0.8-0.8-1.7-0.5-2.6c0,0,0,0,0-0.1c0.3-0.8,1.3-1.3,2.1-1.4c0,0-0.1,0-0.1,0c-1.4,0-2.6,0.8-2.6,0.8c-2,1.4-0.6,3.5-0.4,3.8
			c0.2,0.3,0.1,0.9-0.5,0.9c-0.9,0.1-1.1-1.5-1.1-1.5c-0.6,0.7-0.5,1.9,0.5,2.7c0.6,0.5,0.6,1.3,0.4,2c-0.1,0.4-0.3,0.7-0.6,1
			c-0.7,0.5-1.5,0.2-1.9-0.5c-0.7-1.1,0-2.1,0-2.1c-1,0.4-1.6,1-1.8,1.7c0,0,0,0,0,0c0,0.1,0,0.2-0.1,0.3c0,0.1,0,0.1,0,0.2
			c0,0,0,0.1,0,0.1c-0.1,0.7,0,1.8,1,2.8c1.5,1.4,2.6,1.3,3.3,1.5c0.6,0.2,1.2,0.5,1.6,1.4c0,0,0.3-0.5,0.6-0.8
			c0.6-0.4,1.5-0.4,2.4-1C136.8,47.7,137.5,46.3,137.1,45z"/>
		<g>
			<path fill="#FFFFFF" d="M179,42.2c-0.8-0.4-1.7-0.9-1.7-1.5c0-0.7,0.5-1.1,1.3-1.1c0.8,0,1.6,0.3,2.1,1.5h0.4l-0.2-1.3l-0.1-0.8
				c-1.5-0.6-3.1-0.3-3.1-0.3l0,0c-1.4,0.2-2.3,1.1-2.3,2.4c0,1,0.7,2,1.9,2.6c1.5,0.8,2.3,1.3,2.3,2.1c0,0.9-0.7,1.3-1.7,1.3
				c-1.2,0-1.8-0.7-2.2-2h-0.5l0.4,2.4c0.4,0.1,1.4,0.6,2.6,0.6c2,0,3.4-1.4,3.4-2.6C181.6,43.9,180.7,43.1,179,42.2z"/>
			<path fill="#FFFFFF" d="M190,45.4c-0.6,0.8-0.8,1.1-1.8,1.1c0,0-1.3,0-1.4,0c-0.6,0-0.7,0-0.7-0.8v-2.2h1.6
				c0.3,0,0.5,0.4,0.6,0.6h0.2c0.2-0.5,0.6-0.9,1.1-1.1v-0.2c-0.5-0.2-0.9-0.6-1.1-1.1h-0.2c-0.1,0.2-0.3,0.6-0.6,0.6h-1.6v-2.4
				l2.4,0c0.8,0,1,0.1,1.2,1l0.4,0l-0.3-2.3h-7.2v0.3h0l0,0.1c0.1,0,0.1,0,0.2,0c1,0.1,1.1,0.4,1.1,1.2v5.7c0,0.8-0.1,1.1-1.1,1.2
				c-0.1,0-0.1,0-0.2,0l0,0.1h0v0.3h7.2l0.7-2.5L190,45.4z"/>
			<path fill="#FFFFFF" d="M157.6,39.3c0.1,0,0.1,0,0.2,0c1,0,1.1,0.4,1.1,1.2v5c-0.4,0.7-1.1,1.3-1.8,1.3c-0.8,0-1.6-0.6-1.6-2.1
				v-4.2c0-0.8,0.1-1.2,1.1-1.2c0.1,0,0.2,0,0.2,0v-0.5H152v0.5c0.1,0,0.1,0,0.2,0c1,0,1.1,0.4,1.1,1.2v4.2c0,2.4,1.3,3.2,2.9,3.2
				c1,0,2.1-0.5,2.7-1.3v0.9v0.3v0.1h3.5v-0.5v0h-0.1c0,0-0.1,0-0.2,0c-1-0.1-1.1-0.4-1.1-1.2v-5.7c0-0.8,0.1-1.2,1.1-1.2
				c0.1,0,0.1,0,0.2,0h0v-0.5h-4.8V39.3z"/>
			<path fill="#FFFFFF" d="M147.2,46.9c-1.9,0-3.4-1.3-3.5-3.4c-0.1-2,1.2-3.7,3.2-3.7c1.3,0,2.4,0.5,2.7,1.6h0.4l-0.1-1.7l0-0.7
				c-0.9-0.3-2-0.4-2.6-0.4c-0.2,0-0.3,0-0.5,0c-3,0-5.2,2.1-5.2,4.9c0,3,2.3,4.6,5.2,4.6c1.1,0,2.7-0.4,3.2-0.8l0.2-2.3h-0.4
				C149.5,46.6,148.5,46.9,147.2,46.9z"/>
			<path fill="#FFFFFF" d="M174.1,47.8l-2.9-4.4c0.8-0.5,1.4-1.3,1.4-2.3c0-1.3-1.2-2.3-3.2-2.3c0,0-0.1,0-0.1,0v0h-4.8V39v0.2
				c0,0,0.5,0,0.5,0c0.2,0,0.4,0.1,0.5,0.2c0.3,0.2,0.3,0.7,0.3,1v5.7c0,0.1,0,0.3,0,0.4c0,0.2-0.1,0.5-0.3,0.6
				c-0.1,0-0.1,0.1-0.2,0.1c-0.1,0-0.3,0.1-0.4,0.1c0,0-0.4,0-0.4,0c0,0,0,0.5,0,0.5h0h4.8v-0.3h0l0-0.2c-0.1,0-0.1,0-0.2,0
				c-1-0.1-1.1-0.4-1.1-1.2V44c0.3,0,0.6,0,0.9,0.1l4.2,3.7h0l0.5,0.5c0,0,0.1,0.1,0.1,0.1c0.2,0.1,0.7,0,0.6-0.2
				C174.3,48.1,174.2,48,174.1,47.8z M168.7,43.3c-0.3,0-0.7,0-0.7,0V43v-2.7v-0.5c0.1,0,0.4,0,0.9,0c1.1,0,1.6,0.8,1.6,1.7
				C170.5,42.6,169.7,43.3,168.7,43.3z"/>
		</g>
		<text transform="matrix(1 0 0 1 51.1397 47.5168)" fill="#FFFFFF" font-family="'MyriadPro-Regular', 'Noto Sans', 'Open Sans', sans-serif" font-size="12">Powered By |</text>
	</g>
</g>
</svg>
