<?xml version="1.0" encoding="utf-8"?>
<!-- Generator: Adobe Illustrator 18.1.1, SVG Export Plug-In . SVG Version: 6.00 Build 0)  -->
<svg version="1.1" id="Layer_1" xmlns="http://www.w3.org/2000/svg" xmlns:xlink="http://www.w3.org/1999/xlink" x="0px" y="0px"
	 viewBox="0 0 105 30" enable-background="new 0 0 105 30" xml:space="preserve">
<g>
	<polygon fill="#F58120" points="5.4,13.3 13.5,5.2 13.5,8 6.5,13.2 9.8,22.2 9.3,22.2 	"/>
	<polygon fill="#FFFFFF" points="7.1,13.3 17.2,5.8 17,8 9.9,12.4 19,7.5 18.6,9.8 11.3,12.6 20.5,9.6 19.9,11.6 9.4,14.3 	"/>
	<g>
		<path fill="#F58120" d="M9.3,14.8L12.5,25l8.2-4.2l0.5-8.9L9.3,14.8z M18.4,20.6c-0.4,0.4-0.9,0.4-1.1,0.7
			c-0.2,0.2-0.3,0.5-0.3,0.5c-0.3-0.4-0.6-0.6-0.9-0.6c-0.3,0-0.9,0.1-1.8-0.5c-0.6-0.4-0.7-1-0.8-1.3c0,0,0,0,0-0.1
			c0,0,0-0.1,0-0.1c0,0,0-0.1,0-0.1c0,0,0,0,0,0c0,0,0,0,0,0c0.1-0.4,0.3-0.7,0.8-1c0,0-0.3,0.6,0.2,1.1c0.3,0.3,0.7,0.4,1,0.1
			c0.1-0.1,0.2-0.3,0.2-0.5c0-0.4,0-0.8-0.4-1c-0.6-0.3-0.7-0.9-0.5-1.3c0,0,0.2,0.7,0.6,0.6c0.3-0.1,0.3-0.4,0.2-0.5
			c-0.1-0.1-1-1-0.1-1.9c0,0,0.5-0.5,1.2-0.6c0,0,0,0,0.1,0c-0.4,0.1-0.8,0.5-0.9,0.9c0,0,0,0,0,0c-0.1,0.5,0.1,0.9,0.5,1.3
			c0.3,0.3,0.6,0.5,0.7,0.9c-0.2,0-0.3,0-0.4,0.2c-0.1,0.1-0.1,0.4,0,0.5c0.1,0.1,0.2,0.2,0.3,0.2c0,0,0.1,0,0.1,0c0,0,0,0,0.1,0
			c0.1-0.1,0.2-0.3,0.1-0.4c0.1,0.1,0.2,0.4,0.2,0.5c0,0.2,0,0.3-0.1,0.5c-0.1,0.1-0.1,0.2-0.1,0.4c0,0.1,0,0.2,0,0.4
			c0,0.1,0,0.3,0.1,0.3c0.3,0.3,0.6-0.1,0.7-0.4c0.1-0.3,0-0.7-0.3-1c0,0,0.4,0.1,0.8,0.8C19,19.5,18.8,20.2,18.4,20.6z"/>
	</g>
</g>
<g>
	<path fill="#FFFFFF" d="M34.4,18.7c0,0.1,0,0.2-0.1,0.3v0c-0.1,0.1-0.2,0.3-0.3,0.4c-1.1,0.8-2.3,1.2-3.6,1.2c-1.6,0-3-0.6-4.1-1.7
		c-1.1-1.1-1.7-2.5-1.7-4s0.6-2.9,1.7-4.1c1.1-1.1,2.5-1.7,4.1-1.7c1.4,0,2.6,0.4,3.6,1.2c0.2,0.1,0.3,0.3,0.3,0.6
		c0,0.3,0,0.5-0.2,0.7c-0.1,0.2-0.3,0.3-0.6,0.3c-0.3,0-0.5,0-0.7-0.2c-0.7-0.6-1.6-0.9-2.6-0.9c-1,0-1.9,0.4-2.7,1.1
		c-0.8,0.8-1.2,1.7-1.2,2.8c0,1.1,0.4,2,1.2,2.8c0.8,0.8,1.7,1.1,2.8,1.1c0.8,0,1.5-0.2,2.2-0.6v-2.2h-2.3c-0.2,0-0.5-0.1-0.6-0.3
		c-0.2-0.2-0.3-0.4-0.3-0.6c0-0.2,0.1-0.5,0.3-0.6c0.2-0.2,0.4-0.3,0.6-0.3h3.2c0.3,0,0.5,0.1,0.7,0.3c0.2,0.2,0.3,0.4,0.3,0.6V18.7
		z"/>
	<path fill="#FFFFFF" d="M42.6,20.2l-0.8-2.1h-3.9l-0.8,2.1c-0.1,0.4-0.4,0.6-0.8,0.6c-0.4,0-0.6-0.1-0.8-0.4
		c-0.2-0.3-0.2-0.5-0.1-0.8l3.5-9.3c0.1-0.2,0.2-0.3,0.3-0.4c0.2-0.1,0.3-0.2,0.5-0.1c0.4,0,0.7,0.2,0.8,0.6l3.5,9.3
		c0.1,0.3,0.1,0.5-0.1,0.8c-0.2,0.3-0.4,0.4-0.8,0.4C43,20.7,42.7,20.5,42.6,20.2z M38.6,16.3h2.6l-1.3-3.4L38.6,16.3z"/>
	<path fill="#FFFFFF" d="M49.7,16.7L49.7,16.7c-0.3,0-0.6-0.1-0.8-0.4l-2.3-3.2v6.7c0,0.2-0.1,0.4-0.3,0.6c-0.2,0.2-0.4,0.3-0.6,0.3
		c-0.2,0-0.4-0.1-0.6-0.3c-0.2-0.2-0.3-0.4-0.3-0.6v-9.4c0-0.2,0.1-0.4,0.3-0.6c0.2-0.2,0.4-0.3,0.6-0.3h0c0.3,0,0.5,0.1,0.7,0.4
		l3.2,4.4l3.2-4.4c0.2-0.2,0.4-0.4,0.7-0.4h0c0.2,0,0.5,0.1,0.6,0.3c0.2,0.2,0.3,0.4,0.3,0.6v9.4c0,0.2-0.1,0.4-0.3,0.6
		c-0.2,0.2-0.4,0.3-0.6,0.3c-0.2,0-0.4-0.1-0.6-0.3c-0.2-0.2-0.3-0.4-0.3-0.6v-6.7l-2.3,3.2C50.2,16.6,50,16.7,49.7,16.7z"/>
	<path fill="#FFFFFF" d="M56.8,20.7c-0.2,0-0.4-0.1-0.6-0.3c-0.2-0.2-0.3-0.4-0.3-0.6v-9.4c0-0.2,0.1-0.4,0.3-0.6
		c0.2-0.2,0.4-0.3,0.6-0.3H62c0.2,0,0.4,0.1,0.6,0.3c0.2,0.2,0.3,0.4,0.3,0.6c0,0.2-0.1,0.5-0.3,0.6c-0.2,0.2-0.4,0.3-0.6,0.3h-4.3
		v2.9h3.7c0.2,0,0.4,0.1,0.6,0.3c0.2,0.2,0.3,0.4,0.3,0.6c0,0.2-0.1,0.4-0.3,0.6c-0.2,0.2-0.4,0.3-0.6,0.3h-3.7v2.9H62
		c0.2,0,0.4,0.1,0.6,0.3c0.2,0.2,0.3,0.4,0.3,0.6c0,0.2-0.1,0.4-0.3,0.6c-0.2,0.2-0.4,0.3-0.6,0.3H56.8L56.8,20.7L56.8,20.7z"/>
	<path fill="#F58120" d="M70.3,10.6c0.7,0.7,1,1.5,1,2.4c0,0.9-0.3,1.7-1,2.4c-0.7,0.7-1.5,1-2.4,1h-2v3.4c0,0.2-0.1,0.4-0.3,0.6
		c-0.2,0.2-0.4,0.3-0.6,0.3c-0.2,0-0.4-0.1-0.6-0.3c-0.2-0.2-0.3-0.4-0.3-0.6v-9.4c0-0.2,0.1-0.4,0.3-0.6c0.2-0.2,0.4-0.3,0.6-0.3
		h2.8C68.8,9.6,69.6,9.9,70.3,10.6z M65.9,11.4v3.3h2c0.5,0,0.8-0.2,1.2-0.5c0.3-0.3,0.5-0.7,0.5-1.1c0-0.5-0.2-0.9-0.5-1.2
		c-0.3-0.3-0.7-0.5-1.2-0.5H65.9z"/>
	<path fill="#F58120" d="M73,20.7c-0.2,0-0.4-0.1-0.6-0.3c-0.2-0.2-0.3-0.4-0.3-0.6v-9.4c0-0.2,0.1-0.4,0.3-0.6
		c0.2-0.2,0.4-0.3,0.6-0.3h5.2c0.2,0,0.4,0.1,0.6,0.3c0.2,0.2,0.3,0.4,0.3,0.6c0,0.2-0.1,0.5-0.3,0.6c-0.2,0.2-0.4,0.3-0.6,0.3h-4.3
		v2.9h3.7c0.2,0,0.4,0.1,0.6,0.3c0.2,0.2,0.3,0.4,0.3,0.6c0,0.2-0.1,0.4-0.3,0.6c-0.2,0.2-0.4,0.3-0.6,0.3h-3.7v2.9h4.3
		c0.2,0,0.4,0.1,0.6,0.3c0.2,0.2,0.3,0.4,0.3,0.6c0,0.2-0.1,0.4-0.3,0.6c-0.2,0.2-0.4,0.3-0.6,0.3H73L73,20.7L73,20.7z"/>
	<path fill="#F58120" d="M80.1,19.8v-9.4c0-0.2,0.1-0.4,0.3-0.6c0.2-0.2,0.4-0.3,0.6-0.3h1.9c1.5,0,2.8,0.5,3.9,1.6
		c1.1,1.1,1.6,2.4,1.6,3.9c0,1.5-0.5,2.8-1.6,3.9c-1.1,1.1-2.4,1.6-3.9,1.6H81c-0.2,0-0.4-0.1-0.6-0.3
		C80.2,20.3,80.1,20.1,80.1,19.8z M81.9,11.4v7.6h1c1,0,1.9-0.4,2.7-1.1c0.7-0.7,1.1-1.6,1.1-2.7c0-1-0.4-1.9-1.1-2.7
		c-0.7-0.7-1.6-1.1-2.7-1.1H81.9z"/>
	<path fill="#F58120" d="M89.6,10.5c0-0.2,0.1-0.4,0.3-0.6c0.2-0.2,0.4-0.3,0.6-0.3c0.2,0,0.5,0.1,0.6,0.3c0.2,0.2,0.3,0.4,0.3,0.6
		v9.4c0,0.2-0.1,0.4-0.3,0.6c-0.2,0.2-0.4,0.3-0.6,0.3c-0.2,0-0.4-0.1-0.6-0.3c-0.2-0.2-0.3-0.4-0.3-0.6V10.5z"/>
	<path fill="#F58120" d="M99.3,20.2l-0.8-2.1h-3.9l-0.8,2.1c-0.1,0.4-0.4,0.6-0.8,0.6c-0.4,0-0.6-0.1-0.8-0.4
		c-0.2-0.3-0.2-0.5-0.1-0.8l3.5-9.3c0.1-0.2,0.2-0.3,0.3-0.4c0.2-0.1,0.3-0.2,0.5-0.1c0.4,0,0.7,0.2,0.8,0.6l3.5,9.3
		c0.1,0.3,0.1,0.5-0.1,0.8c-0.2,0.3-0.4,0.4-0.8,0.4C99.7,20.7,99.5,20.5,99.3,20.2z M95.3,16.3h2.6l-1.3-3.4L95.3,16.3z"/>
</g>
</svg>
