<?xml version="1.0" encoding="utf-8"?>
<!-- Generator: Adobe Illustrator 19.2.1, SVG Export Plug-In . SVG Version: 6.00 Build 0)  -->
<svg version="1.1" id="Layer_1" xmlns="http://www.w3.org/2000/svg" xmlns:xlink="http://www.w3.org/1999/xlink" x="0px" y="0px"
	 viewBox="0 0 388.7 78" style="enable-background:new 0 0 388.7 78;" xml:space="preserve">
<style type="text/css">
	.st0{clip-path:url(#SVGID_2_);}
	.st1{clip-path:url(#SVGID_4_);fill:#23343B;}
	.st2{fill:#3C3125;stroke:#60502A;stroke-width:2;stroke-miterlimit:10;}
	.st3{fill:url(#SVGID_5_);}
	.st4{fill:#60502A;}
	.st5{fill:url(#SVGID_6_);}
	.st6{fill:url(#SVGID_7_);}
	.st7{fill:url(#SVGID_8_);}
	.st8{fill:url(#SVGID_9_);}
	.st9{fill:url(#SVGID_10_);}
	.st10{fill:url(#SVGID_11_);}
	.st11{fill:url(#SVGID_12_);}
	.st12{fill:url(#SVGID_13_);}
	.st13{fill:url(#SVGID_14_);}
	.st14{fill:url(#SVGID_15_);}
	.st15{fill:#A16A33;}
</style>
<g>
	<defs>
		<path id="SVGID_1_" d="M-215.8-711.9c-1.1,0-2,0.9-2,2v86c0,1.1,0.9,2,2,2h116c1.1,0,2-0.9,2-2v-86c0-1.1-0.9-2-2-2H-215.8z"/>
	</defs>
	<clipPath id="SVGID_2_">
		<use xlink:href="#SVGID_1_"  style="overflow:visible;"/>
	</clipPath>
	<g class="st0">
		<defs>
			<rect id="SVGID_3_" x="-1075.8" y="-1018.9" width="2552" height="2423"/>
		</defs>
		<clipPath id="SVGID_4_">
			<use xlink:href="#SVGID_3_"  style="overflow:visible;"/>
		</clipPath>
		<rect x="-222.8" y="-716.9" class="st1" width="130" height="100"/>
	</g>
</g>
<path class="st2" d="M349.7,77H39C18.1,77,1,59.9,1,39v0C1,18.1,18.1,1,39,1h310.7c20.9,0,38,17.1,38,38v0
	C387.7,59.9,370.6,77,349.7,77z"/>
<g>
	<linearGradient id="SVGID_5_" gradientUnits="userSpaceOnUse" x1="38.6475" y1="1.8599" x2="38.6475" y2="76.4176">
		<stop  offset="0" style="stop-color:#FFB43F"/>
		<stop  offset="0.3402" style="stop-color:#FFD681"/>
		<stop  offset="0.6846" style="stop-color:#CAA133"/>
		<stop  offset="1" style="stop-color:#794910"/>
	</linearGradient>
	<path class="st3" d="M38.6,76.8C17.8,76.8,0.9,59.8,0.9,39S17.8,1.2,38.6,1.2c20.8,0,37.8,16.9,37.8,37.8S59.5,76.8,38.6,76.8z"/>
	<path class="st4" d="M38.6,2.2c20.3,0,36.8,16.5,36.8,36.8c0,20.3-16.5,36.8-36.8,36.8S1.9,59.3,1.9,39C1.9,18.7,18.4,2.2,38.6,2.2
		 M38.6,0.2C17.2,0.2-0.1,17.6-0.1,39c0,21.4,17.4,38.8,38.8,38.8S77.4,60.4,77.4,39C77.4,17.6,60.1,0.2,38.6,0.2L38.6,0.2z"/>
</g>
<g>
	<linearGradient id="SVGID_6_" gradientUnits="userSpaceOnUse" x1="109.7254" y1="19.0718" x2="109.7254" y2="62.0834">
		<stop  offset="0" style="stop-color:#FFB43F"/>
		<stop  offset="0.3402" style="stop-color:#FFD681"/>
		<stop  offset="0.6846" style="stop-color:#CAA133"/>
		<stop  offset="1" style="stop-color:#794910"/>
	</linearGradient>
	<path class="st5" d="M125.4,39.9c0,5.4-1.3,9.6-4,12.5s-6.6,4.4-11.6,4.4s-8.9-1.5-11.6-4.4s-4-7.1-4-12.6s1.4-9.6,4.1-12.5
		c2.7-2.9,6.6-4.3,11.6-4.3c5,0,8.9,1.5,11.6,4.4S125.4,34.5,125.4,39.9z M101.4,39.9c0,3.7,0.7,6.4,2.1,8.3s3.5,2.8,6.2,2.8
		c5.6,0,8.3-3.7,8.3-11.1c0-7.4-2.8-11.1-8.3-11.1c-2.8,0-4.9,0.9-6.3,2.8C102.1,33.5,101.4,36.2,101.4,39.9z"/>
	<linearGradient id="SVGID_7_" gradientUnits="userSpaceOnUse" x1="149.8089" y1="19.0718" x2="149.8089" y2="62.0834">
		<stop  offset="0" style="stop-color:#FFB43F"/>
		<stop  offset="0.3402" style="stop-color:#FFD681"/>
		<stop  offset="0.6846" style="stop-color:#CAA133"/>
		<stop  offset="1" style="stop-color:#794910"/>
	</linearGradient>
	<path class="st6" d="M143.7,36.4h-5.9v20h-6.9v-20h-3.8v-3.3l3.8-1.8v-1.8c0-2.9,0.7-4.9,2.1-6.3c1.4-1.3,3.7-2,6.8-2
		c2.4,0,4.5,0.4,6.3,1.1l-1.8,5c-1.4-0.4-2.7-0.7-3.8-0.7c-1,0-1.7,0.3-2.1,0.9c-0.4,0.6-0.7,1.3-0.7,2.2v1.6h5.9V36.4z M161.5,36.4
		h-5.9v20h-6.9v-20h-3.8v-3.3l3.8-1.8v-1.8c0-2.9,0.7-4.9,2.1-6.3c1.4-1.3,3.7-2,6.8-2c2.4,0,4.5,0.4,6.3,1.1l-1.8,5
		c-1.4-0.4-2.7-0.7-3.8-0.7c-1,0-1.7,0.3-2.1,0.9c-0.4,0.6-0.7,1.3-0.7,2.2v1.6h5.9V36.4z M165,24.8c0-2.2,1.2-3.3,3.7-3.3
		c2.5,0,3.7,1.1,3.7,3.3c0,1.1-0.3,1.9-0.9,2.5c-0.6,0.6-1.6,0.9-2.8,0.9C166.3,28.1,165,27,165,24.8z M172.2,56.4h-6.9V31.3h6.9
		V56.4z"/>
	<linearGradient id="SVGID_8_" gradientUnits="userSpaceOnUse" x1="186.0848" y1="19.0718" x2="186.0848" y2="62.0834">
		<stop  offset="0" style="stop-color:#FFB43F"/>
		<stop  offset="0.3402" style="stop-color:#FFD681"/>
		<stop  offset="0.6846" style="stop-color:#CAA133"/>
		<stop  offset="1" style="stop-color:#794910"/>
	</linearGradient>
	<path class="st7" d="M187.7,56.8c-7.8,0-11.7-4.3-11.7-12.9c0-4.3,1.1-7.5,3.2-9.8c2.1-2.3,5.2-3.4,9.1-3.4c2.9,0,5.5,0.6,7.8,1.7
		l-2,5.3c-1.1-0.4-2.1-0.8-3-1.1c-0.9-0.3-1.9-0.4-2.8-0.4c-3.6,0-5.3,2.5-5.3,7.6c0,4.9,1.8,7.4,5.3,7.4c1.3,0,2.5-0.2,3.7-0.5
		c1.1-0.4,2.2-0.9,3.4-1.7V55c-1.1,0.7-2.2,1.2-3.4,1.5C190.9,56.7,189.5,56.8,187.7,56.8z"/>
	<linearGradient id="SVGID_9_" gradientUnits="userSpaceOnUse" x1="202.7865" y1="19.0718" x2="202.7865" y2="62.0834">
		<stop  offset="0" style="stop-color:#FFB43F"/>
		<stop  offset="0.3402" style="stop-color:#FFD681"/>
		<stop  offset="0.6846" style="stop-color:#CAA133"/>
		<stop  offset="1" style="stop-color:#794910"/>
	</linearGradient>
	<path class="st8" d="M199.1,24.8c0-2.2,1.2-3.3,3.7-3.3c2.5,0,3.7,1.1,3.7,3.3c0,1.1-0.3,1.9-0.9,2.5c-0.6,0.6-1.6,0.9-2.8,0.9
		C200.3,28.1,199.1,27,199.1,24.8z M206.2,56.4h-6.9V31.3h6.9V56.4z"/>
	<linearGradient id="SVGID_10_" gradientUnits="userSpaceOnUse" x1="221.0828" y1="19.0718" x2="221.0828" y2="62.0834">
		<stop  offset="0" style="stop-color:#FFB43F"/>
		<stop  offset="0.3402" style="stop-color:#FFD681"/>
		<stop  offset="0.6846" style="stop-color:#CAA133"/>
		<stop  offset="1" style="stop-color:#794910"/>
	</linearGradient>
	<path class="st9" d="M227.5,56.4l-1.3-3.4H226c-1.2,1.5-2.3,2.5-3.6,3c-1.2,0.6-2.8,0.8-4.8,0.8c-2.4,0-4.3-0.7-5.7-2.1
		c-1.4-1.4-2.1-3.3-2.1-5.9c0-2.7,0.9-4.6,2.8-5.9c1.9-1.3,4.7-2,8.4-2.1l4.4-0.1v-1.1c0-2.5-1.3-3.8-3.9-3.8c-2,0-4.4,0.6-7.1,1.8
		l-2.3-4.6c2.9-1.5,6.1-2.3,9.6-2.3c3.4,0,6,0.7,7.7,2.2s2.7,3.7,2.7,6.7v16.7H227.5z M225.5,44.7l-2.7,0.1c-2,0.1-3.5,0.4-4.4,1.1
		s-1.5,1.7-1.5,3c0,1.9,1.1,2.9,3.3,2.9c1.6,0,2.9-0.5,3.8-1.4c1-0.9,1.4-2.1,1.4-3.6V44.7z"/>
	<linearGradient id="SVGID_11_" gradientUnits="userSpaceOnUse" x1="240.9178" y1="19.0718" x2="240.9178" y2="62.0834">
		<stop  offset="0" style="stop-color:#FFB43F"/>
		<stop  offset="0.3402" style="stop-color:#FFD681"/>
		<stop  offset="0.6846" style="stop-color:#CAA133"/>
		<stop  offset="1" style="stop-color:#794910"/>
	</linearGradient>
	<path class="st10" d="M244.3,56.4h-6.9V21.4h6.9V56.4z"/>
	<linearGradient id="SVGID_12_" gradientUnits="userSpaceOnUse" x1="278.4417" y1="19.0718" x2="278.4417" y2="62.0834">
		<stop  offset="0" style="stop-color:#FFB43F"/>
		<stop  offset="0.3402" style="stop-color:#FFD681"/>
		<stop  offset="0.6846" style="stop-color:#CAA133"/>
		<stop  offset="1" style="stop-color:#794910"/>
	</linearGradient>
	<path class="st11" d="M292.3,56.4h-7.9l-4.4-17.2c-0.2-0.6-0.4-1.9-0.8-3.8c-0.4-1.9-0.6-3.2-0.7-3.9c-0.1,0.8-0.3,2.1-0.7,3.9
		c-0.4,1.8-0.6,3.1-0.8,3.8l-4.4,17.2h-7.9l-8.4-32.8h6.9l4.2,17.9c0.7,3.3,1.3,6.2,1.6,8.6c0.1-0.9,0.3-2.2,0.6-4
		c0.3-1.8,0.6-3.2,0.9-4.2l4.8-18.4h6.6l4.8,18.4c0.2,0.8,0.5,2.1,0.8,3.8s0.6,3.1,0.7,4.4c0.1-1.2,0.4-2.6,0.7-4.4
		c0.3-1.7,0.6-3.2,0.9-4.2l4.2-17.9h6.9L292.3,56.4z"/>
	<linearGradient id="SVGID_13_" gradientUnits="userSpaceOnUse" x1="305.8685" y1="19.0718" x2="305.8685" y2="62.0834">
		<stop  offset="0" style="stop-color:#FFB43F"/>
		<stop  offset="0.3402" style="stop-color:#FFD681"/>
		<stop  offset="0.6846" style="stop-color:#CAA133"/>
		<stop  offset="1" style="stop-color:#794910"/>
	</linearGradient>
	<path class="st12" d="M302.1,24.8c0-2.2,1.2-3.3,3.7-3.3s3.7,1.1,3.7,3.3c0,1.1-0.3,1.9-0.9,2.5c-0.6,0.6-1.6,0.9-2.8,0.9
		C303.4,28.1,302.1,27,302.1,24.8z M309.3,56.4h-6.9V31.3h6.9V56.4z"/>
	<linearGradient id="SVGID_14_" gradientUnits="userSpaceOnUse" x1="327.096" y1="19.0718" x2="327.096" y2="62.0834">
		<stop  offset="0" style="stop-color:#FFB43F"/>
		<stop  offset="0.3402" style="stop-color:#FFD681"/>
		<stop  offset="0.6846" style="stop-color:#CAA133"/>
		<stop  offset="1" style="stop-color:#794910"/>
	</linearGradient>
	<path class="st13" d="M321.2,42.7l3-3.8l7-7.6h7.7l-10,10.9l10.6,14.2h-7.9l-7.2-10.2l-2.9,2.4v7.8h-6.9V21.4h6.9V37L321.2,42.7
		L321.2,42.7z"/>
	<linearGradient id="SVGID_15_" gradientUnits="userSpaceOnUse" x1="344.7523" y1="19.0718" x2="344.7523" y2="62.0834">
		<stop  offset="0" style="stop-color:#FFB43F"/>
		<stop  offset="0.3402" style="stop-color:#FFD681"/>
		<stop  offset="0.6846" style="stop-color:#CAA133"/>
		<stop  offset="1" style="stop-color:#794910"/>
	</linearGradient>
	<path class="st14" d="M341,24.8c0-2.2,1.2-3.3,3.7-3.3s3.7,1.1,3.7,3.3c0,1.1-0.3,1.9-0.9,2.5c-0.6,0.6-1.6,0.9-2.8,0.9
		C342.3,28.1,341,27,341,24.8z M348.2,56.4h-6.9V31.3h6.9V56.4z"/>
</g>
<g>
	<path class="st15" d="M33.5,56.1c-0.3,0-0.7-0.2-1.2-0.7L19.3,44.7c-1.1-0.9-1.1-1.3-0.3-2.4l2.1-2.7c0.6-0.7,0.9-0.8,1.2-0.8
		c0.3,0,0.7,0.2,1.2,0.6l9.5,7.9l19.8-24.4c0.7-0.8,1-0.9,1.3-0.9c0.3,0,0.7,0.2,1.3,0.6l2.7,2.2c0.6,0.5,0.9,0.8,0.9,1.2
		c0,0.3-0.2,0.8-0.6,1.3l-23.5,28C34,56,33.7,56.1,33.5,56.1L33.5,56.1z"/>
</g>
</svg>
